# xmcd
#
# Track frame offsets: 
#        150
#        4152
#        14541
#        25647
#        38409
#        39835
#        51538
#        62174
#        75662
#        77128
#        80666
#        91218
#        111836
#        121171
#        140085
#        154998
#        158774
#        163533
#        173740
#        177032
#        182010
#        200006
#        220569
#        238740
#        256490
#        276511
#        298312
#        298987
#
# Disc length: 4155 seconds
#
# Revision: 0
# Processed by: cddbd v1.5.2PL0 Copyright (c) Steve Scherf et al.
# Submitted via: ExactAudioCopy v0.99pb5
#
DISCID=8d10391c
DTITLE=The Beatles  - Telecasts - Disc 4
DYEAR=1900
DGENRE=
TTITLE0=Intro
TTITLE1=I Feel Fine
TTITLE2=I'm Down
TTITLE3=Act Naturally
TTITLE4=Outro\\intro
TTITLE5=Ticket To Ride
TTITLE6=Yesterday
TTITLE7=Help!
TTITLE8=Outro
TTITLE9=Intro Film Clip
TTITLE10=All You Need Is Love
TTITLE11=All You Need Is Love
TTITLE12=Skit
TTITLE13=Nellie Dean
TTITLE14=Do You Like Me (Just A Little Bit)
TTITLE15=By George It's The David Frost Theme
TTITLE16=By George It's The David Frost Theme
TTITLE17=George Cameo
TTITLE18=John, Julian And Mick
TTITLE19=John And Mick
TTITLE20=Circus Jam
TTITLE21=Yer Blues
TTITLE22=Yer Blues
TTITLE23=Yer Blues
TTITLE24=Yer Blues
TTITLE25=Her Blues
TTITLE26=John Intro
TTITLE27=Octopus's Garden
EXTD=
EXTT0=
EXTT1=
EXTT2=
EXTT3=
EXTT4=
EXTT5=
EXTT6=
EXTT7=
EXTT8=
EXTT9=
EXTT10=
EXTT11=
EXTT12=
EXTT13=
EXTT14=
EXTT15=
EXTT16=
EXTT17=
EXTT18=
EXTT19=
EXTT20=
EXTT21=
EXTT22=
EXTT23=
EXTT24=
EXTT25=
EXTT26=
EXTT27=
PLAYORDER=
